HIERARCHY
ROOT Hips
{
	OFFSET 0.00000 0.00000 0.00000
	CHANNELS 6 Xposition Yposition Zposition Zrotation Yrotation Xrotation 
	JOINT LHipJoint
	{
		OFFSET 0 0 0
		CHANNELS 3 Zrotation Yrotation Xrotation
		JOINT LeftHip
		{
			OFFSET 1.36337 -1.57426 1.11036
			CHANNELS 3 Zrotation Yrotation Xrotation
			JOINT LeftKnee
			{
				OFFSET 2.38468 -6.55187 0.00000
				CHANNELS 3 Zrotation Yrotation Xrotation
				JOINT LeftAnkle
				{
					OFFSET 2.37166 -6.51609 0.00000
					CHANNELS 3 Zrotation Yrotation Xrotation
					JOINT LeftToe
					{
						OFFSET 0.29078 -0.79891 2.01393
						CHANNELS 3 Zrotation Yrotation Xrotation
						End Site
						{
							OFFSET 0.00000 -0.00000 1.07924
						}
					}
				}
			}
		}
	}
	JOINT RHipJoint
	{
		OFFSET 0 0 0
		CHANNELS 3 Zrotation Yrotation Xrotation
		JOINT RightHip
		{
			OFFSET -1.36349 -1.57426 1.11036
			CHANNELS 3 Zrotation Yrotation Xrotation
			JOINT RightKnee
			{
				OFFSET -2.29562 -6.30717 0.00000
				CHANNELS 3 Zrotation Yrotation Xrotation
				JOINT RightAnkle
				{
					OFFSET -2.40985 -6.62100 0.00000
					CHANNELS 3 Zrotation Yrotation Xrotation
					JOINT RightToe
					{
						OFFSET -0.23197 -0.63733 1.92232
						CHANNELS 3 Zrotation Yrotation Xrotation
						End Site
						{
							OFFSET -0.00000 -0.00000 1.01562
						}
					}
				}
			}
		}
	}
	JOINT lowerback
	{
		OFFSET 0 0 0
		CHANNELS 3 Zrotation Yrotation Xrotation
		JOINT Chest
		{
			OFFSET -0.08565 2.03602 -0.24562
			CHANNELS 3 Zrotation Yrotation Xrotation
			JOINT Chest2
			{
				OFFSET -0.00036 2.05693 0.00216
				CHANNELS 3 Zrotation Yrotation Xrotation
				JOINT lowerneck
				{
					OFFSET 0 0 0
					CHANNELS 3 Zrotation Yrotation Xrotation
					JOINT Neck
					{
						OFFSET -0.03664 1.69515 0.31789
						CHANNELS 3 Zrotation Yrotation Xrotation
						JOINT Head
						{
							OFFSET 0.00932 1.70181 -0.46013
							CHANNELS 3 Zrotation Yrotation Xrotation
							End Site
							{
								OFFSET 0.01243 1.77620 -0.19377
							}
						}
					}
				}
				JOINT LeftCollar
				{
					OFFSET 0 0 0
					CHANNELS 3 Zrotation Yrotation Xrotation
					JOINT LeftShoulder
					{
						OFFSET 3.74344 0.81315 -0.36647
CHANNELS 3 Zrotation Xrotation Yrotation
						JOINT LeftElbow
						{
OFFSET 0 -4.971850 -0.000000
CHANNELS 3 Zrotation Xrotation Yrotation
							JOINT LeftWrist
							{
OFFSET 0 -3.358110 0.000000
CHANNELS 3 Zrotation Xrotation Yrotation
								JOINT lhand
								{
									OFFSET 0 0 0
CHANNELS 3 Zrotation Xrotation Yrotation
									JOINT LFingers
									{
OFFSET 0 -0.622780 0.000000
CHANNELS 3 Zrotation Xrotation Yrotation
										End Site
										{
OFFSET 0 -0.502100 0.000000
										}
									}
								}
								JOINT LThumb
								{
OFFSET 0 0.000000 0.000000
CHANNELS 3 Zrotation Xrotation Yrotation
									End Site
									{
OFFSET 0 -0.509760 0.509760
									}
								}
							}
						}
					}
				}
				JOINT RightCollar
				{
					OFFSET 0 0 0
					CHANNELS 3 Zrotation Yrotation Xrotation
					JOINT RightShoulder
					{
						OFFSET -3.75385 0.50666 -0.06525
CHANNELS 3 Zrotation Xrotation Yrotation
						JOINT RightElbow
						{
OFFSET 0 -4.964930 -0.000000
CHANNELS 3 Zrotation Xrotation Yrotation
							JOINT RightWrist
							{
OFFSET 0 -3.349290 0.000000
CHANNELS 3 Zrotation Xrotation Yrotation
								JOINT rhand
								{
									OFFSET 0 0 0
CHANNELS 3 Zrotation Xrotation Yrotation
									JOINT RFingers
									{
OFFSET 0 -0.638040 0.000000
CHANNELS 3 Zrotation Xrotation Yrotation
										End Site
										{
OFFSET 0 -0.514410 0.000000
										}
									}
								}
								JOINT RThumb
								{
OFFSET 0 0.000000 0.000000
CHANNELS 3 Zrotation Xrotation Yrotation
									End Site
									{
OFFSET 0 -0.522260 0.522260
									}
								}
							}
						}
					}
				}
			}
		}
	}
}
MOTION
Frames: 12
Frame Time: 0.008333333333333333
-23.922083 15.515203 -0.827800 7.107959 118.942102 381.655189 0.000000 0.000000 0.000000 -10.405244 -0.143882 -54.978084 12.682720 18.662903 68.135354 1.075240 -2.447830 -18.932083 0.099791 -2.023027 -5.569844 0.000000 0.000000 0.000000 21.394115 -16.122165 15.069511 0.000000 0.000000 0.000000 -0.223096 -12.908713 -20.884541 -1.110198 6.690777 -18.803764 -0.242702 4.191421 10.191653 -0.244297 5.780879 5.016551 -0.714672 2.989739 -0.472127 -3.671033 -0.612721 -28.397896 -2.414936 2.633139 32.122159 0.211945 0.464375 16.308877 0.000000 0.000000 0.000000 11.846717 16.805424 -11.188976 14.669033 -23.669087 3.100224 26.969565 -16.842239 8.512469 0.000000 0.000000 0.000000 -7.125000 0.000000 0.000000 0.061013 20.446569 0.035928 0.000000 0.000000 0.000000 -16.081949 -5.775219 43.023683 -55.478228 -54.977928 -30.607643 -3.589895 -14.099082 20.310236 0.000000 0.000000 0.000000 7.125000 0.000000 0.000000 24.086827 48.734230 -2.372617
-23.521841 15.357621 -1.149581 5.701708 119.737738 381.300239 0.000000 0.000000 0.000000 -12.249128 0.947056 -55.305664 13.370088 18.911563 70.270942 1.330075 -3.851133 -20.873460 0.132403 -2.345095 -6.460458 0.000000 0.000000 0.000000 20.234462 -16.024521 16.387875 0.000000 0.000000 0.000000 -0.097859 -13.261977 -19.985035 -1.472377 7.665740 -21.704232 -1.030914 4.433734 9.365188 -0.506748 6.037630 5.049931 -0.502932 3.105395 -0.035363 -4.421779 -1.443579 -28.618770 -0.773065 1.082068 32.054057 0.713556 -0.025408 16.301849 0.000000 0.000000 0.000000 12.652462 16.152778 -15.892640 18.025577 -28.185207 4.563794 27.041101 -22.883094 8.680210 0.000000 0.000000 0.000000 -7.125000 0.000000 0.000000 0.103068 20.253470 0.061020 0.000000 0.000000 0.000000 -16.734964 -4.283567 42.475890 -53.201759 -54.206967 -28.751870 -4.245237 -13.984702 20.308566 0.000000 0.000000 0.000000 7.125000 0.000000 0.000000 23.483974 48.835194 -2.342956
-23.089172 15.276720 -1.535554 4.163692 120.576830 380.872935 0.000000 0.000000 0.000000 -14.058016 1.227995 -54.213643 13.590780 18.985183 70.950697 1.728031 -5.596054 -23.682970 0.049222 -1.331205 -3.662129 0.000000 0.000000 0.000000 19.254829 -14.529248 13.188517 -0.244183 -2.939811 8.127867 -0.211056 -12.608705 -20.388876 -1.635059 8.053507 -22.880532 -1.744812 4.645122 8.686922 -0.761330 6.278572 5.114918 -0.329118 3.213559 0.357676 -5.148825 -2.373257 -28.732741 1.089960 -0.744009 31.560273 1.241200 -0.589356 16.135165 0.000000 0.000000 0.000000 13.541511 15.125769 -20.608664 22.367318 -33.353032 6.803211 26.783501 -26.985106 9.344970 0.000000 0.000000 0.000000 -7.125000 0.000000 0.000000 -0.119435 19.535449 -0.073189 0.000000 0.000000 0.000000 -16.812543 -2.219161 41.499252 -49.248336 -52.671389 -25.579516 -3.900061 -14.773050 20.298805 0.000000 0.000000 0.000000 7.125000 0.000000 0.000000 23.791531 48.776980 -2.339659
-22.677047 15.249637 -1.929782 3.437529 122.065534 380.751895 0.000000 0.000000 0.000000 -15.200692 1.138077 -52.387895 13.520118 18.961901 70.733322 1.938462 -4.917179 -25.231174 0.065193 -1.522594 -4.190806 0.000000 0.000000 0.000000 18.659922 -13.608480 8.256939 -1.190112 -6.831480 19.255396 -0.162957 -12.252300 -19.394514 -0.506332 4.447145 -12.354854 -1.689715 4.661924 9.079636 -0.798103 6.290558 4.981189 -0.441341 3.222275 0.014496 -5.267619 -3.203865 -27.846770 2.628360 -2.602458 30.701209 1.513066 -1.136878 15.629164 0.000000 0.000000 0.000000 14.885719 13.971255 -26.012794 27.328871 -38.458475 9.715513 26.404898 -29.618968 10.622049 0.000000 0.000000 0.000000 -7.125000 0.000000 0.000000 -0.464858 18.153841 -0.296980 0.000000 0.000000 0.000000 -16.256376 0.647046 40.290344 -44.033219 -50.266661 -21.498168 -5.666979 -14.675184 19.598061 0.000000 0.000000 0.000000 7.125000 0.000000 0.000000 21.862551 48.381395 -1.916308
-22.282822 15.210490 -2.331207 2.843366 123.656810 379.970703 0.000000 0.000000 0.000000 -16.189966 1.383556 -49.706673 13.257861 18.873132 69.924197 2.052386 -5.031477 -25.979192 0.285159 -3.420960 -9.454250 0.000000 0.000000 0.000000 18.012179 -12.978304 2.600931 -3.242876 -11.021208 32.412278 0.227876 -13.558481 -16.237963 -0.110165 2.133704 -5.875445 -1.680008 4.198071 10.234889 -0.268725 5.690803 5.244545 0.067646 2.932036 -0.389968 -5.958571 -3.699476 -27.449175 4.289479 -3.685322 29.806378 2.090633 -1.432230 15.243934 0.000000 0.000000 0.000000 15.413640 12.399829 -30.712436 33.376143 -43.587533 13.691311 26.493723 -30.813255 11.142582 0.000000 0.000000 0.000000 -7.125000 0.000000 0.000000 -0.435906 17.568302 -0.283967 0.000000 0.000000 0.000000 -16.305969 2.899679 39.344616 -38.339480 -47.035308 -17.219786 -14.947719 -11.819479 17.592691 0.000000 0.000000 0.000000 7.125000 0.000000 0.000000 12.523032 47.742449 -0.866350
-21.863015 15.187367 -2.723358 -0.853601 125.206482 375.989801 0.000000 0.000000 0.000000 -19.042969 1.686256 -45.232473 12.565868 18.617440 67.769091 2.247544 -5.815951 -27.139898 0.284341 -3.428141 -9.473235 0.000000 0.000000 0.000000 15.202982 -12.937697 -3.966969 -6.623540 -14.914184 47.269327 0.419372 -13.616167 -13.000289 -0.048842 1.426129 -3.922145 -3.826009 3.489513 11.954504 0.285073 4.554316 5.596406 1.856440 2.354464 -1.125730 -6.643763 -4.020830 -27.156842 5.410871 -4.276760 29.285827 2.544901 -1.601634 15.038382 0.000000 0.000000 0.000000 16.080351 10.802966 -35.313375 41.142972 -48.650639 19.318920 27.010852 -31.416451 12.140101 0.000000 0.000000 0.000000 -7.125000 0.000000 0.000000 -0.147584 16.404120 -0.097836 0.000000 0.000000 0.000000 -17.108224 4.937946 38.514715 -33.251649 -43.497385 -13.603702 -14.943415 -10.925760 19.790581 0.000000 0.000000 0.000000 7.125000 0.000000 0.000000 13.308163 49.932251 -1.652849
-21.428936 15.203511 -3.103215 -5.959812 126.968860 370.931952 0.000000 0.000000 0.000000 -22.706637 1.730947 -39.800439 11.489468 18.164602 64.358944 2.420907 -7.013516 -28.096715 0.174639 -2.689093 -7.414459 0.000000 0.000000 0.000000 11.302102 -13.235760 -11.874576 -10.843773 -17.836760 62.248796 0.264563 -10.986154 -10.731286 -0.015174 0.796128 -2.187945 -6.091751 2.911521 13.983821 0.159896 3.434071 5.419183 3.042366 1.815250 -2.438234 -6.322295 -4.424081 -25.834246 5.959922 -5.248410 28.578058 2.508458 -1.910522 14.528260 0.000000 0.000000 0.000000 18.947834 9.346088 -40.804008 51.230520 -53.449593 27.167681 27.361859 -30.264122 10.825005 0.000000 0.000000 0.000000 -7.125000 0.000000 0.000000 0.192961 17.829645 0.124259 0.000000 0.000000 0.000000 -16.730332 8.171348 36.465250 -29.357683 -40.331323 -10.993403 -13.495182 -10.044784 21.672687 0.000000 0.000000 0.000000 7.125000 0.000000 0.000000 15.454528 51.553403 -2.546249
-20.998858 15.255904 -3.494699 -8.516348 128.836833 368.819451 0.000000 0.000000 0.000000 -24.766914 1.507048 -34.901234 10.223772 17.529097 60.227343 2.497991 -7.800300 -28.503647 0.083535 -1.841000 -5.067157 0.000000 0.000000 0.000000 9.170202 -13.036153 -21.594468 -14.909990 -19.338126 74.943441 -0.065660 -6.074789 -10.340256 -0.051290 1.402104 -3.856734 -6.285705 1.680360 14.992332 0.503120 1.738463 5.256070 3.773023 0.996597 -2.989918 -6.879314 -4.424824 -25.751143 6.574939 -5.233132 28.136767 2.848674 -1.889610 14.355480 0.000000 0.000000 0.000000 20.939435 7.298849 -43.546129 62.155150 -56.808455 36.150474 27.915110 -30.093219 12.833492 0.000000 0.000000 0.000000 -7.125000 0.000000 0.000000 0.420883 15.523008 0.293756 0.000000 0.000000 0.000000 -16.967099 10.805221 34.745170 -26.627174 -37.814538 -9.272282 -12.002367 -8.569092 22.201534 0.000000 0.000000 0.000000 7.125000 0.000000 0.000000 17.131871 51.816776 -2.947554
-20.540838 15.385904 -3.920729 -10.407863 130.262858 368.017295 0.000000 0.000000 0.000000 -26.385885 1.374281 -30.174992 8.727809 16.618426 55.127157 2.447131 -8.190970 -28.178130 0.052000 -1.415833 -3.894803 0.000000 0.000000 0.000000 8.089239 -11.896454 -32.125777 -17.757246 -19.870855 83.427526 -0.223559 -2.287954 -10.135347 -0.057473 1.547201 -4.255963 -5.779932 0.348905 15.064609 0.998442 0.042191 4.905984 4.308437 0.162083 -3.211484 -7.364573 -4.358690 -26.639716 6.580229 -4.915896 28.105107 2.989236 -1.808791 14.516151 0.000000 0.000000 0.000000 22.116923 5.540552 -44.336403 72.658022 -58.796057 45.045269 28.660286 -29.607873 13.468408 0.000000 0.000000 0.000000 -7.125000 0.000000 0.000000 0.872969 14.714112 0.623600 0.000000 0.000000 0.000000 -16.899434 13.169111 32.146395 -24.759569 -35.954032 -8.149598 -10.943270 -5.920121 22.347350 0.000000 0.000000 0.000000 7.125000 0.000000 0.000000 18.218945 51.779082 -3.128894
-19.996797 15.591589 -4.369924 -12.220449 130.783758 366.765623 0.000000 0.000000 0.000000 -27.840523 2.842270 -24.562428 6.969882 15.306183 48.759771 2.117411 -7.147223 -26.192009 0.197165 -2.858890 -7.886225 0.000000 0.000000 0.000000 7.768751 -9.719318 -40.790120 -18.899892 -19.970982 86.782012 -0.354879 0.601652 -11.057861 -0.119197 2.225288 -6.128652 -5.595956 -0.354309 14.683205 1.500268 -0.860126 4.503885 4.892859 -0.288749 -3.325470 -7.057269 -4.308553 -26.593531 5.924958 -4.760905 28.346934 2.702725 -1.803039 14.566780 0.000000 0.000000 0.000000 23.431033 4.360026 -45.663239 81.535928 -59.727037 52.676645 29.958846 -30.716780 14.404884 0.000000 0.000000 0.000000 -7.125000 0.000000 0.000000 1.657683 13.471797 1.226441 0.000000 0.000000 0.000000 -16.913506 16.008948 29.938612 -23.698815 -34.844164 -7.533846 -10.128961 -4.532088 22.939320 0.000000 0.000000 0.000000 7.125000 0.000000 0.000000 19.290880 52.204832 -3.529183
-19.393425 15.878884 -4.880212 -13.837497 130.486668 365.349057 0.000000 0.000000 0.000000 -28.957778 4.523342 -18.324251 5.264346 13.657382 41.916936 1.487969 -4.593308 -21.976909 0.488513 -4.467107 -12.397052 0.000000 0.000000 0.000000 8.043666 -6.979997 -47.296041 -18.018086 -19.900424 84.195120 -0.427092 2.122750 -11.797375 -0.354549 3.812091 -10.550128 -4.902004 -1.419717 13.840991 2.194310 -2.116365 4.376296 5.411721 -0.933557 -2.850163 -7.391435 -3.685273 -27.528449 4.981290 -3.321658 29.251852 2.682779 -1.366613 15.033184 0.000000 0.000000 0.000000 23.316146 3.767505 -45.317790 86.718101 -59.954205 57.158354 30.935027 -31.385209 14.097260 0.000000 0.000000 0.000000 -7.125000 0.000000 0.000000 2.347857 13.671022 1.727532 0.000000 0.000000 0.000000 -18.628235 17.319583 30.443530 -23.196455 -34.302801 -7.248784 -9.942017 -6.184195 23.236009 0.000000 0.000000 0.000000 7.125000 0.000000 0.000000 19.622402 52.452908 -3.716839
-18.712958 16.196804 -5.426070 -15.123227 129.919902 364.212624 0.000000 0.000000 0.000000 -29.295549 5.512585 -12.939431 4.234698 12.464776 37.398925 0.750827 -2.754031 -15.559447 0.165247 -2.435864 -6.719614 0.000000 0.000000 0.000000 9.119855 -4.639649 -51.410318 -15.756914 -19.547899 77.497327 -0.485778 3.279448 -12.457609 -0.487462 4.473336 -12.412834 -3.848114 -2.122786 12.518430 2.724194 -2.882830 4.057669 5.429725 -1.337234 -2.401276 -7.022309 -3.113136 -28.121316 3.829946 -2.174667 30.254623 2.399679 -1.012782 15.505170 0.000000 0.000000 0.000000 23.618805 3.635055 -46.005284 89.549901 -59.998160 59.610203 31.035988 -31.920558 13.917594 0.000000 0.000000 0.000000 -7.125000 0.000000 0.000000 2.435959 13.860362 1.782951 0.000000 0.000000 0.000000 -19.399061 19.091335 30.287318 -23.251025 -34.362133 -7.279490 -8.804388 -8.802584 23.520143 0.000000 0.000000 0.000000 7.125000 0.000000 0.000000 20.863040 52.524534 -4.005337
